<mxfile host="app.diagrams.net" modified="2023-04-27T09:26:01.863Z" agent="Mozilla/5.0 (Windows NT 10.0; Win64; x64) AppleWebKit/537.36 (KHTML, like Gecko) Chrome/112.0.0.0 Safari/537.36" version="21.1.4" etag="ZrAUaSBjFttRjxTahrdn" type="github">
  <diagram name="Страница 1" id="wjnDlk7AMkCwlf_TSr_o">
    <mxGraphModel>
      <root>
        <mxCell id="0" />
        <mxCell id="1" parent="0" />
      </root>
    </mxGraphModel>
  </diagram>
</mxfile>
